<?xml version="1.0" encoding="utf-8" standalone="no"?>
<!DOCTYPE svg PUBLIC "-//W3C//DTD SVG 1.1//EN"
  "http://www.w3.org/Graphics/SVG/1.1/DTD/svg11.dtd">
<!-- Created with matplotlib (https://matplotlib.org/) -->
<svg height="288pt" version="1.1" viewBox="0 0 432 288" width="432pt" xmlns="http://www.w3.org/2000/svg" xmlns:xlink="http://www.w3.org/1999/xlink">
 <defs>
  <style type="text/css">
*{stroke-linecap:butt;stroke-linejoin:round;white-space:pre;}
  </style>
 </defs>
 <g id="figure_1">
  <g id="patch_1">
   <path d="M 0 288 
L 432 288 
L 432 0 
L 0 0 
z
" style="fill:#ffffff;"/>
  </g>
  <g id="axes_1">
   <g id="patch_2">
    <path d="M 54 252 
L 388.8 252 
L 388.8 34.56 
L 54 34.56 
z
" style="fill:#ffffff;"/>
   </g>
   <g id="matplotlib.axis_1">
    <g id="xtick_1">
     <g id="line2d_1">
      <defs>
       <path d="M 0 0 
L 0 3.5 
" id="m9c8e5617a6" style="stroke:#000000;stroke-width:0.8;"/>
      </defs>
      <g>
       <use style="stroke:#000000;stroke-width:0.8;" x="66.245978" xlink:href="#m9c8e5617a6" y="252"/>
      </g>
     </g>
     <g id="text_1">
      <!-- −5 -->
      <defs>
       <path d="M 10.59375 35.5 
L 73.1875 35.5 
L 73.1875 27.203125 
L 10.59375 27.203125 
z
" id="DejaVuSans-8722"/>
       <path d="M 10.796875 72.90625 
L 49.515625 72.90625 
L 49.515625 64.59375 
L 19.828125 64.59375 
L 19.828125 46.734375 
Q 21.96875 47.46875 24.109375 47.828125 
Q 26.265625 48.1875 28.421875 48.1875 
Q 40.625 48.1875 47.75 41.5 
Q 54.890625 34.8125 54.890625 23.390625 
Q 54.890625 11.625 47.5625 5.09375 
Q 40.234375 -1.421875 26.90625 -1.421875 
Q 22.3125 -1.421875 17.546875 -0.640625 
Q 12.796875 0.140625 7.71875 1.703125 
L 7.71875 11.625 
Q 12.109375 9.234375 16.796875 8.0625 
Q 21.484375 6.890625 26.703125 6.890625 
Q 35.15625 6.890625 40.078125 11.328125 
Q 45.015625 15.765625 45.015625 23.390625 
Q 45.015625 31 40.078125 35.4375 
Q 35.15625 39.890625 26.703125 39.890625 
Q 22.75 39.890625 18.8125 39.015625 
Q 14.890625 38.140625 10.796875 36.28125 
z
" id="DejaVuSans-53"/>
      </defs>
      <g transform="translate(58.874884 266.598437)scale(0.1 -0.1)">
       <use xlink:href="#DejaVuSans-8722"/>
       <use x="83.789062" xlink:href="#DejaVuSans-53"/>
      </g>
     </g>
    </g>
    <g id="xtick_2">
     <g id="line2d_2">
      <g>
       <use style="stroke:#000000;stroke-width:0.8;" x="107.866424" xlink:href="#m9c8e5617a6" y="252"/>
      </g>
     </g>
     <g id="text_2">
      <!-- 0 -->
      <defs>
       <path d="M 31.78125 66.40625 
Q 24.171875 66.40625 20.328125 58.90625 
Q 16.5 51.421875 16.5 36.375 
Q 16.5 21.390625 20.328125 13.890625 
Q 24.171875 6.390625 31.78125 6.390625 
Q 39.453125 6.390625 43.28125 13.890625 
Q 47.125 21.390625 47.125 36.375 
Q 47.125 51.421875 43.28125 58.90625 
Q 39.453125 66.40625 31.78125 66.40625 
z
M 31.78125 74.21875 
Q 44.046875 74.21875 50.515625 64.515625 
Q 56.984375 54.828125 56.984375 36.375 
Q 56.984375 17.96875 50.515625 8.265625 
Q 44.046875 -1.421875 31.78125 -1.421875 
Q 19.53125 -1.421875 13.0625 8.265625 
Q 6.59375 17.96875 6.59375 36.375 
Q 6.59375 54.828125 13.0625 64.515625 
Q 19.53125 74.21875 31.78125 74.21875 
z
" id="DejaVuSans-48"/>
      </defs>
      <g transform="translate(104.685174 266.598437)scale(0.1 -0.1)">
       <use xlink:href="#DejaVuSans-48"/>
      </g>
     </g>
    </g>
    <g id="xtick_3">
     <g id="line2d_3">
      <g>
       <use style="stroke:#000000;stroke-width:0.8;" x="149.48687" xlink:href="#m9c8e5617a6" y="252"/>
      </g>
     </g>
     <g id="text_3">
      <!-- 5 -->
      <g transform="translate(146.30562 266.598437)scale(0.1 -0.1)">
       <use xlink:href="#DejaVuSans-53"/>
      </g>
     </g>
    </g>
    <g id="xtick_4">
     <g id="line2d_4">
      <g>
       <use style="stroke:#000000;stroke-width:0.8;" x="191.107316" xlink:href="#m9c8e5617a6" y="252"/>
      </g>
     </g>
     <g id="text_4">
      <!-- 10 -->
      <defs>
       <path d="M 12.40625 8.296875 
L 28.515625 8.296875 
L 28.515625 63.921875 
L 10.984375 60.40625 
L 10.984375 69.390625 
L 28.421875 72.90625 
L 38.28125 72.90625 
L 38.28125 8.296875 
L 54.390625 8.296875 
L 54.390625 0 
L 12.40625 0 
z
" id="DejaVuSans-49"/>
      </defs>
      <g transform="translate(184.744816 266.598437)scale(0.1 -0.1)">
       <use xlink:href="#DejaVuSans-49"/>
       <use x="63.623047" xlink:href="#DejaVuSans-48"/>
      </g>
     </g>
    </g>
    <g id="xtick_5">
     <g id="line2d_5">
      <g>
       <use style="stroke:#000000;stroke-width:0.8;" x="232.727762" xlink:href="#m9c8e5617a6" y="252"/>
      </g>
     </g>
     <g id="text_5">
      <!-- 15 -->
      <g transform="translate(226.365262 266.598437)scale(0.1 -0.1)">
       <use xlink:href="#DejaVuSans-49"/>
       <use x="63.623047" xlink:href="#DejaVuSans-53"/>
      </g>
     </g>
    </g>
    <g id="xtick_6">
     <g id="line2d_6">
      <g>
       <use style="stroke:#000000;stroke-width:0.8;" x="274.348208" xlink:href="#m9c8e5617a6" y="252"/>
      </g>
     </g>
     <g id="text_6">
      <!-- 20 -->
      <defs>
       <path d="M 19.1875 8.296875 
L 53.609375 8.296875 
L 53.609375 0 
L 7.328125 0 
L 7.328125 8.296875 
Q 12.9375 14.109375 22.625 23.890625 
Q 32.328125 33.6875 34.8125 36.53125 
Q 39.546875 41.84375 41.421875 45.53125 
Q 43.3125 49.21875 43.3125 52.78125 
Q 43.3125 58.59375 39.234375 62.25 
Q 35.15625 65.921875 28.609375 65.921875 
Q 23.96875 65.921875 18.8125 64.3125 
Q 13.671875 62.703125 7.8125 59.421875 
L 7.8125 69.390625 
Q 13.765625 71.78125 18.9375 73 
Q 24.125 74.21875 28.421875 74.21875 
Q 39.75 74.21875 46.484375 68.546875 
Q 53.21875 62.890625 53.21875 53.421875 
Q 53.21875 48.921875 51.53125 44.890625 
Q 49.859375 40.875 45.40625 35.40625 
Q 44.1875 33.984375 37.640625 27.21875 
Q 31.109375 20.453125 19.1875 8.296875 
z
" id="DejaVuSans-50"/>
      </defs>
      <g transform="translate(267.985708 266.598437)scale(0.1 -0.1)">
       <use xlink:href="#DejaVuSans-50"/>
       <use x="63.623047" xlink:href="#DejaVuSans-48"/>
      </g>
     </g>
    </g>
    <g id="xtick_7">
     <g id="line2d_7">
      <g>
       <use style="stroke:#000000;stroke-width:0.8;" x="315.968654" xlink:href="#m9c8e5617a6" y="252"/>
      </g>
     </g>
     <g id="text_7">
      <!-- 25 -->
      <g transform="translate(309.606154 266.598437)scale(0.1 -0.1)">
       <use xlink:href="#DejaVuSans-50"/>
       <use x="63.623047" xlink:href="#DejaVuSans-53"/>
      </g>
     </g>
    </g>
    <g id="xtick_8">
     <g id="line2d_8">
      <g>
       <use style="stroke:#000000;stroke-width:0.8;" x="357.5891" xlink:href="#m9c8e5617a6" y="252"/>
      </g>
     </g>
     <g id="text_8">
      <!-- 30 -->
      <defs>
       <path d="M 40.578125 39.3125 
Q 47.65625 37.796875 51.625 33 
Q 55.609375 28.21875 55.609375 21.1875 
Q 55.609375 10.40625 48.1875 4.484375 
Q 40.765625 -1.421875 27.09375 -1.421875 
Q 22.515625 -1.421875 17.65625 -0.515625 
Q 12.796875 0.390625 7.625 2.203125 
L 7.625 11.71875 
Q 11.71875 9.328125 16.59375 8.109375 
Q 21.484375 6.890625 26.8125 6.890625 
Q 36.078125 6.890625 40.9375 10.546875 
Q 45.796875 14.203125 45.796875 21.1875 
Q 45.796875 27.640625 41.28125 31.265625 
Q 36.765625 34.90625 28.71875 34.90625 
L 20.21875 34.90625 
L 20.21875 43.015625 
L 29.109375 43.015625 
Q 36.375 43.015625 40.234375 45.921875 
Q 44.09375 48.828125 44.09375 54.296875 
Q 44.09375 59.90625 40.109375 62.90625 
Q 36.140625 65.921875 28.71875 65.921875 
Q 24.65625 65.921875 20.015625 65.03125 
Q 15.375 64.15625 9.8125 62.3125 
L 9.8125 71.09375 
Q 15.4375 72.65625 20.34375 73.4375 
Q 25.25 74.21875 29.59375 74.21875 
Q 40.828125 74.21875 47.359375 69.109375 
Q 53.90625 64.015625 53.90625 55.328125 
Q 53.90625 49.265625 50.4375 45.09375 
Q 46.96875 40.921875 40.578125 39.3125 
z
" id="DejaVuSans-51"/>
      </defs>
      <g transform="translate(351.2266 266.598437)scale(0.1 -0.1)">
       <use xlink:href="#DejaVuSans-51"/>
       <use x="63.623047" xlink:href="#DejaVuSans-48"/>
      </g>
     </g>
    </g>
    <g id="text_9">
     <!-- Avg Max Temperature (°c) -->
     <defs>
      <path d="M 34.1875 63.1875 
L 20.796875 26.90625 
L 47.609375 26.90625 
z
M 28.609375 72.90625 
L 39.796875 72.90625 
L 67.578125 0 
L 57.328125 0 
L 50.6875 18.703125 
L 17.828125 18.703125 
L 11.1875 0 
L 0.78125 0 
z
" id="DejaVuSans-65"/>
      <path d="M 2.984375 54.6875 
L 12.5 54.6875 
L 29.59375 8.796875 
L 46.6875 54.6875 
L 56.203125 54.6875 
L 35.6875 0 
L 23.484375 0 
z
" id="DejaVuSans-118"/>
      <path d="M 45.40625 27.984375 
Q 45.40625 37.75 41.375 43.109375 
Q 37.359375 48.484375 30.078125 48.484375 
Q 22.859375 48.484375 18.828125 43.109375 
Q 14.796875 37.75 14.796875 27.984375 
Q 14.796875 18.265625 18.828125 12.890625 
Q 22.859375 7.515625 30.078125 7.515625 
Q 37.359375 7.515625 41.375 12.890625 
Q 45.40625 18.265625 45.40625 27.984375 
z
M 54.390625 6.78125 
Q 54.390625 -7.171875 48.1875 -13.984375 
Q 42 -20.796875 29.203125 -20.796875 
Q 24.46875 -20.796875 20.265625 -20.09375 
Q 16.0625 -19.390625 12.109375 -17.921875 
L 12.109375 -9.1875 
Q 16.0625 -11.328125 19.921875 -12.34375 
Q 23.78125 -13.375 27.78125 -13.375 
Q 36.625 -13.375 41.015625 -8.765625 
Q 45.40625 -4.15625 45.40625 5.171875 
L 45.40625 9.625 
Q 42.625 4.78125 38.28125 2.390625 
Q 33.9375 0 27.875 0 
Q 17.828125 0 11.671875 7.65625 
Q 5.515625 15.328125 5.515625 27.984375 
Q 5.515625 40.671875 11.671875 48.328125 
Q 17.828125 56 27.875 56 
Q 33.9375 56 38.28125 53.609375 
Q 42.625 51.21875 45.40625 46.390625 
L 45.40625 54.6875 
L 54.390625 54.6875 
z
" id="DejaVuSans-103"/>
      <path id="DejaVuSans-32"/>
      <path d="M 9.8125 72.90625 
L 24.515625 72.90625 
L 43.109375 23.296875 
L 61.8125 72.90625 
L 76.515625 72.90625 
L 76.515625 0 
L 66.890625 0 
L 66.890625 64.015625 
L 48.09375 14.015625 
L 38.1875 14.015625 
L 19.390625 64.015625 
L 19.390625 0 
L 9.8125 0 
z
" id="DejaVuSans-77"/>
      <path d="M 34.28125 27.484375 
Q 23.390625 27.484375 19.1875 25 
Q 14.984375 22.515625 14.984375 16.5 
Q 14.984375 11.71875 18.140625 8.90625 
Q 21.296875 6.109375 26.703125 6.109375 
Q 34.1875 6.109375 38.703125 11.40625 
Q 43.21875 16.703125 43.21875 25.484375 
L 43.21875 27.484375 
z
M 52.203125 31.203125 
L 52.203125 0 
L 43.21875 0 
L 43.21875 8.296875 
Q 40.140625 3.328125 35.546875 0.953125 
Q 30.953125 -1.421875 24.3125 -1.421875 
Q 15.921875 -1.421875 10.953125 3.296875 
Q 6 8.015625 6 15.921875 
Q 6 25.140625 12.171875 29.828125 
Q 18.359375 34.515625 30.609375 34.515625 
L 43.21875 34.515625 
L 43.21875 35.40625 
Q 43.21875 41.609375 39.140625 45 
Q 35.0625 48.390625 27.6875 48.390625 
Q 23 48.390625 18.546875 47.265625 
Q 14.109375 46.140625 10.015625 43.890625 
L 10.015625 52.203125 
Q 14.9375 54.109375 19.578125 55.046875 
Q 24.21875 56 28.609375 56 
Q 40.484375 56 46.34375 49.84375 
Q 52.203125 43.703125 52.203125 31.203125 
z
" id="DejaVuSans-97"/>
      <path d="M 54.890625 54.6875 
L 35.109375 28.078125 
L 55.90625 0 
L 45.3125 0 
L 29.390625 21.484375 
L 13.484375 0 
L 2.875 0 
L 24.125 28.609375 
L 4.6875 54.6875 
L 15.28125 54.6875 
L 29.78125 35.203125 
L 44.28125 54.6875 
z
" id="DejaVuSans-120"/>
      <path d="M -0.296875 72.90625 
L 61.375 72.90625 
L 61.375 64.59375 
L 35.5 64.59375 
L 35.5 0 
L 25.59375 0 
L 25.59375 64.59375 
L -0.296875 64.59375 
z
" id="DejaVuSans-84"/>
      <path d="M 56.203125 29.59375 
L 56.203125 25.203125 
L 14.890625 25.203125 
Q 15.484375 15.921875 20.484375 11.0625 
Q 25.484375 6.203125 34.421875 6.203125 
Q 39.59375 6.203125 44.453125 7.46875 
Q 49.3125 8.734375 54.109375 11.28125 
L 54.109375 2.78125 
Q 49.265625 0.734375 44.1875 -0.34375 
Q 39.109375 -1.421875 33.890625 -1.421875 
Q 20.796875 -1.421875 13.15625 6.1875 
Q 5.515625 13.8125 5.515625 26.8125 
Q 5.515625 40.234375 12.765625 48.109375 
Q 20.015625 56 32.328125 56 
Q 43.359375 56 49.78125 48.890625 
Q 56.203125 41.796875 56.203125 29.59375 
z
M 47.21875 32.234375 
Q 47.125 39.59375 43.09375 43.984375 
Q 39.0625 48.390625 32.421875 48.390625 
Q 24.90625 48.390625 20.390625 44.140625 
Q 15.875 39.890625 15.1875 32.171875 
z
" id="DejaVuSans-101"/>
      <path d="M 52 44.1875 
Q 55.375 50.25 60.0625 53.125 
Q 64.75 56 71.09375 56 
Q 79.640625 56 84.28125 50.015625 
Q 88.921875 44.046875 88.921875 33.015625 
L 88.921875 0 
L 79.890625 0 
L 79.890625 32.71875 
Q 79.890625 40.578125 77.09375 44.375 
Q 74.3125 48.1875 68.609375 48.1875 
Q 61.625 48.1875 57.5625 43.546875 
Q 53.515625 38.921875 53.515625 30.90625 
L 53.515625 0 
L 44.484375 0 
L 44.484375 32.71875 
Q 44.484375 40.625 41.703125 44.40625 
Q 38.921875 48.1875 33.109375 48.1875 
Q 26.21875 48.1875 22.15625 43.53125 
Q 18.109375 38.875 18.109375 30.90625 
L 18.109375 0 
L 9.078125 0 
L 9.078125 54.6875 
L 18.109375 54.6875 
L 18.109375 46.1875 
Q 21.1875 51.21875 25.484375 53.609375 
Q 29.78125 56 35.6875 56 
Q 41.65625 56 45.828125 52.96875 
Q 50 49.953125 52 44.1875 
z
" id="DejaVuSans-109"/>
      <path d="M 18.109375 8.203125 
L 18.109375 -20.796875 
L 9.078125 -20.796875 
L 9.078125 54.6875 
L 18.109375 54.6875 
L 18.109375 46.390625 
Q 20.953125 51.265625 25.265625 53.625 
Q 29.59375 56 35.59375 56 
Q 45.5625 56 51.78125 48.09375 
Q 58.015625 40.1875 58.015625 27.296875 
Q 58.015625 14.40625 51.78125 6.484375 
Q 45.5625 -1.421875 35.59375 -1.421875 
Q 29.59375 -1.421875 25.265625 0.953125 
Q 20.953125 3.328125 18.109375 8.203125 
z
M 48.6875 27.296875 
Q 48.6875 37.203125 44.609375 42.84375 
Q 40.53125 48.484375 33.40625 48.484375 
Q 26.265625 48.484375 22.1875 42.84375 
Q 18.109375 37.203125 18.109375 27.296875 
Q 18.109375 17.390625 22.1875 11.75 
Q 26.265625 6.109375 33.40625 6.109375 
Q 40.53125 6.109375 44.609375 11.75 
Q 48.6875 17.390625 48.6875 27.296875 
z
" id="DejaVuSans-112"/>
      <path d="M 41.109375 46.296875 
Q 39.59375 47.171875 37.8125 47.578125 
Q 36.03125 48 33.890625 48 
Q 26.265625 48 22.1875 43.046875 
Q 18.109375 38.09375 18.109375 28.8125 
L 18.109375 0 
L 9.078125 0 
L 9.078125 54.6875 
L 18.109375 54.6875 
L 18.109375 46.1875 
Q 20.953125 51.171875 25.484375 53.578125 
Q 30.03125 56 36.53125 56 
Q 37.453125 56 38.578125 55.875 
Q 39.703125 55.765625 41.0625 55.515625 
z
" id="DejaVuSans-114"/>
      <path d="M 18.3125 70.21875 
L 18.3125 54.6875 
L 36.8125 54.6875 
L 36.8125 47.703125 
L 18.3125 47.703125 
L 18.3125 18.015625 
Q 18.3125 11.328125 20.140625 9.421875 
Q 21.96875 7.515625 27.59375 7.515625 
L 36.8125 7.515625 
L 36.8125 0 
L 27.59375 0 
Q 17.1875 0 13.234375 3.875 
Q 9.28125 7.765625 9.28125 18.015625 
L 9.28125 47.703125 
L 2.6875 47.703125 
L 2.6875 54.6875 
L 9.28125 54.6875 
L 9.28125 70.21875 
z
" id="DejaVuSans-116"/>
      <path d="M 8.5 21.578125 
L 8.5 54.6875 
L 17.484375 54.6875 
L 17.484375 21.921875 
Q 17.484375 14.15625 20.5 10.265625 
Q 23.53125 6.390625 29.59375 6.390625 
Q 36.859375 6.390625 41.078125 11.03125 
Q 45.3125 15.671875 45.3125 23.6875 
L 45.3125 54.6875 
L 54.296875 54.6875 
L 54.296875 0 
L 45.3125 0 
L 45.3125 8.40625 
Q 42.046875 3.421875 37.71875 1 
Q 33.40625 -1.421875 27.6875 -1.421875 
Q 18.265625 -1.421875 13.375 4.4375 
Q 8.5 10.296875 8.5 21.578125 
z
M 31.109375 56 
z
" id="DejaVuSans-117"/>
      <path d="M 31 75.875 
Q 24.46875 64.65625 21.28125 53.65625 
Q 18.109375 42.671875 18.109375 31.390625 
Q 18.109375 20.125 21.3125 9.0625 
Q 24.515625 -2 31 -13.1875 
L 23.1875 -13.1875 
Q 15.875 -1.703125 12.234375 9.375 
Q 8.59375 20.453125 8.59375 31.390625 
Q 8.59375 42.28125 12.203125 53.3125 
Q 15.828125 64.359375 23.1875 75.875 
z
" id="DejaVuSans-40"/>
      <path d="M 25 67.921875 
Q 21.09375 67.921875 18.40625 65.203125 
Q 15.71875 62.5 15.71875 58.59375 
Q 15.71875 54.734375 18.40625 52.078125 
Q 21.09375 49.421875 25 49.421875 
Q 28.90625 49.421875 31.59375 52.078125 
Q 34.28125 54.734375 34.28125 58.59375 
Q 34.28125 62.453125 31.5625 65.1875 
Q 28.859375 67.921875 25 67.921875 
z
M 25 74.21875 
Q 28.125 74.21875 31 73.015625 
Q 33.890625 71.828125 35.984375 69.578125 
Q 38.234375 67.390625 39.359375 64.59375 
Q 40.484375 61.8125 40.484375 58.59375 
Q 40.484375 52.15625 35.96875 47.6875 
Q 31.453125 43.21875 24.90625 43.21875 
Q 18.3125 43.21875 13.90625 47.609375 
Q 9.515625 52 9.515625 58.59375 
Q 9.515625 65.140625 14 69.671875 
Q 18.5 74.21875 25 74.21875 
z
" id="DejaVuSans-176"/>
      <path d="M 48.78125 52.59375 
L 48.78125 44.1875 
Q 44.96875 46.296875 41.140625 47.34375 
Q 37.3125 48.390625 33.40625 48.390625 
Q 24.65625 48.390625 19.8125 42.84375 
Q 14.984375 37.3125 14.984375 27.296875 
Q 14.984375 17.28125 19.8125 11.734375 
Q 24.65625 6.203125 33.40625 6.203125 
Q 37.3125 6.203125 41.140625 7.25 
Q 44.96875 8.296875 48.78125 10.40625 
L 48.78125 2.09375 
Q 45.015625 0.34375 40.984375 -0.53125 
Q 36.96875 -1.421875 32.421875 -1.421875 
Q 20.0625 -1.421875 12.78125 6.34375 
Q 5.515625 14.109375 5.515625 27.296875 
Q 5.515625 40.671875 12.859375 48.328125 
Q 20.21875 56 33.015625 56 
Q 37.15625 56 41.109375 55.140625 
Q 45.0625 54.296875 48.78125 52.59375 
z
" id="DejaVuSans-99"/>
      <path d="M 8.015625 75.875 
L 15.828125 75.875 
Q 23.140625 64.359375 26.78125 53.3125 
Q 30.421875 42.28125 30.421875 31.390625 
Q 30.421875 20.453125 26.78125 9.375 
Q 23.140625 -1.703125 15.828125 -13.1875 
L 8.015625 -13.1875 
Q 14.5 -2 17.703125 9.0625 
Q 20.90625 20.125 20.90625 31.390625 
Q 20.90625 42.671875 17.703125 53.65625 
Q 14.5 64.65625 8.015625 75.875 
z
" id="DejaVuSans-41"/>
     </defs>
     <g transform="translate(154.977344 280.276563)scale(0.1 -0.1)">
      <use xlink:href="#DejaVuSans-65"/>
      <use x="68.330078" xlink:href="#DejaVuSans-118"/>
      <use x="127.509766" xlink:href="#DejaVuSans-103"/>
      <use x="190.986328" xlink:href="#DejaVuSans-32"/>
      <use x="222.773438" xlink:href="#DejaVuSans-77"/>
      <use x="309.052734" xlink:href="#DejaVuSans-97"/>
      <use x="370.332031" xlink:href="#DejaVuSans-120"/>
      <use x="429.511719" xlink:href="#DejaVuSans-32"/>
      <use x="461.298828" xlink:href="#DejaVuSans-84"/>
      <use x="522.117188" xlink:href="#DejaVuSans-101"/>
      <use x="583.640625" xlink:href="#DejaVuSans-109"/>
      <use x="681.052734" xlink:href="#DejaVuSans-112"/>
      <use x="744.529297" xlink:href="#DejaVuSans-101"/>
      <use x="806.052734" xlink:href="#DejaVuSans-114"/>
      <use x="847.166016" xlink:href="#DejaVuSans-97"/>
      <use x="908.445312" xlink:href="#DejaVuSans-116"/>
      <use x="947.654297" xlink:href="#DejaVuSans-117"/>
      <use x="1011.033203" xlink:href="#DejaVuSans-114"/>
      <use x="1052.115234" xlink:href="#DejaVuSans-101"/>
      <use x="1113.638672" xlink:href="#DejaVuSans-32"/>
      <use x="1145.425781" xlink:href="#DejaVuSans-40"/>
      <use x="1184.439453" xlink:href="#DejaVuSans-176"/>
      <use x="1234.439453" xlink:href="#DejaVuSans-99"/>
      <use x="1289.419922" xlink:href="#DejaVuSans-41"/>
     </g>
    </g>
   </g>
   <g id="matplotlib.axis_2">
    <g id="ytick_1">
     <g id="line2d_9">
      <defs>
       <path d="M 0 0 
L -3.5 0 
" id="mc8fba1d2e8" style="stroke:#000000;stroke-width:0.8;"/>
      </defs>
      <g>
       <use style="stroke:#000000;stroke-width:0.8;" x="54" xlink:href="#mc8fba1d2e8" y="242.132303"/>
      </g>
     </g>
     <g id="text_10">
      <!-- 0 -->
      <g transform="translate(40.6375 245.931522)scale(0.1 -0.1)">
       <use xlink:href="#DejaVuSans-48"/>
      </g>
     </g>
    </g>
    <g id="ytick_2">
     <g id="line2d_10">
      <g>
       <use style="stroke:#000000;stroke-width:0.8;" x="54" xlink:href="#mc8fba1d2e8" y="214.072246"/>
      </g>
     </g>
     <g id="text_11">
      <!-- 1000 -->
      <g transform="translate(21.55 217.871465)scale(0.1 -0.1)">
       <use xlink:href="#DejaVuSans-49"/>
       <use x="63.623047" xlink:href="#DejaVuSans-48"/>
       <use x="127.246094" xlink:href="#DejaVuSans-48"/>
       <use x="190.869141" xlink:href="#DejaVuSans-48"/>
      </g>
     </g>
    </g>
    <g id="ytick_3">
     <g id="line2d_11">
      <g>
       <use style="stroke:#000000;stroke-width:0.8;" x="54" xlink:href="#mc8fba1d2e8" y="186.012189"/>
      </g>
     </g>
     <g id="text_12">
      <!-- 2000 -->
      <g transform="translate(21.55 189.811408)scale(0.1 -0.1)">
       <use xlink:href="#DejaVuSans-50"/>
       <use x="63.623047" xlink:href="#DejaVuSans-48"/>
       <use x="127.246094" xlink:href="#DejaVuSans-48"/>
       <use x="190.869141" xlink:href="#DejaVuSans-48"/>
      </g>
     </g>
    </g>
    <g id="ytick_4">
     <g id="line2d_12">
      <g>
       <use style="stroke:#000000;stroke-width:0.8;" x="54" xlink:href="#mc8fba1d2e8" y="157.952132"/>
      </g>
     </g>
     <g id="text_13">
      <!-- 3000 -->
      <g transform="translate(21.55 161.751351)scale(0.1 -0.1)">
       <use xlink:href="#DejaVuSans-51"/>
       <use x="63.623047" xlink:href="#DejaVuSans-48"/>
       <use x="127.246094" xlink:href="#DejaVuSans-48"/>
       <use x="190.869141" xlink:href="#DejaVuSans-48"/>
      </g>
     </g>
    </g>
    <g id="ytick_5">
     <g id="line2d_13">
      <g>
       <use style="stroke:#000000;stroke-width:0.8;" x="54" xlink:href="#mc8fba1d2e8" y="129.892075"/>
      </g>
     </g>
     <g id="text_14">
      <!-- 4000 -->
      <defs>
       <path d="M 37.796875 64.3125 
L 12.890625 25.390625 
L 37.796875 25.390625 
z
M 35.203125 72.90625 
L 47.609375 72.90625 
L 47.609375 25.390625 
L 58.015625 25.390625 
L 58.015625 17.1875 
L 47.609375 17.1875 
L 47.609375 0 
L 37.796875 0 
L 37.796875 17.1875 
L 4.890625 17.1875 
L 4.890625 26.703125 
z
" id="DejaVuSans-52"/>
      </defs>
      <g transform="translate(21.55 133.691294)scale(0.1 -0.1)">
       <use xlink:href="#DejaVuSans-52"/>
       <use x="63.623047" xlink:href="#DejaVuSans-48"/>
       <use x="127.246094" xlink:href="#DejaVuSans-48"/>
       <use x="190.869141" xlink:href="#DejaVuSans-48"/>
      </g>
     </g>
    </g>
    <g id="ytick_6">
     <g id="line2d_14">
      <g>
       <use style="stroke:#000000;stroke-width:0.8;" x="54" xlink:href="#mc8fba1d2e8" y="101.832019"/>
      </g>
     </g>
     <g id="text_15">
      <!-- 5000 -->
      <g transform="translate(21.55 105.631237)scale(0.1 -0.1)">
       <use xlink:href="#DejaVuSans-53"/>
       <use x="63.623047" xlink:href="#DejaVuSans-48"/>
       <use x="127.246094" xlink:href="#DejaVuSans-48"/>
       <use x="190.869141" xlink:href="#DejaVuSans-48"/>
      </g>
     </g>
    </g>
    <g id="ytick_7">
     <g id="line2d_15">
      <g>
       <use style="stroke:#000000;stroke-width:0.8;" x="54" xlink:href="#mc8fba1d2e8" y="73.771962"/>
      </g>
     </g>
     <g id="text_16">
      <!-- 6000 -->
      <defs>
       <path d="M 33.015625 40.375 
Q 26.375 40.375 22.484375 35.828125 
Q 18.609375 31.296875 18.609375 23.390625 
Q 18.609375 15.53125 22.484375 10.953125 
Q 26.375 6.390625 33.015625 6.390625 
Q 39.65625 6.390625 43.53125 10.953125 
Q 47.40625 15.53125 47.40625 23.390625 
Q 47.40625 31.296875 43.53125 35.828125 
Q 39.65625 40.375 33.015625 40.375 
z
M 52.59375 71.296875 
L 52.59375 62.3125 
Q 48.875 64.0625 45.09375 64.984375 
Q 41.3125 65.921875 37.59375 65.921875 
Q 27.828125 65.921875 22.671875 59.328125 
Q 17.53125 52.734375 16.796875 39.40625 
Q 19.671875 43.65625 24.015625 45.921875 
Q 28.375 48.1875 33.59375 48.1875 
Q 44.578125 48.1875 50.953125 41.515625 
Q 57.328125 34.859375 57.328125 23.390625 
Q 57.328125 12.15625 50.6875 5.359375 
Q 44.046875 -1.421875 33.015625 -1.421875 
Q 20.359375 -1.421875 13.671875 8.265625 
Q 6.984375 17.96875 6.984375 36.375 
Q 6.984375 53.65625 15.1875 63.9375 
Q 23.390625 74.21875 37.203125 74.21875 
Q 40.921875 74.21875 44.703125 73.484375 
Q 48.484375 72.75 52.59375 71.296875 
z
" id="DejaVuSans-54"/>
      </defs>
      <g transform="translate(21.55 77.57118)scale(0.1 -0.1)">
       <use xlink:href="#DejaVuSans-54"/>
       <use x="63.623047" xlink:href="#DejaVuSans-48"/>
       <use x="127.246094" xlink:href="#DejaVuSans-48"/>
       <use x="190.869141" xlink:href="#DejaVuSans-48"/>
      </g>
     </g>
    </g>
    <g id="ytick_8">
     <g id="line2d_16">
      <g>
       <use style="stroke:#000000;stroke-width:0.8;" x="54" xlink:href="#mc8fba1d2e8" y="45.711905"/>
      </g>
     </g>
     <g id="text_17">
      <!-- 7000 -->
      <defs>
       <path d="M 8.203125 72.90625 
L 55.078125 72.90625 
L 55.078125 68.703125 
L 28.609375 0 
L 18.3125 0 
L 43.21875 64.59375 
L 8.203125 64.59375 
z
" id="DejaVuSans-55"/>
      </defs>
      <g transform="translate(21.55 49.511123)scale(0.1 -0.1)">
       <use xlink:href="#DejaVuSans-55"/>
       <use x="63.623047" xlink:href="#DejaVuSans-48"/>
       <use x="127.246094" xlink:href="#DejaVuSans-48"/>
       <use x="190.869141" xlink:href="#DejaVuSans-48"/>
      </g>
     </g>
    </g>
    <g id="text_18">
     <!-- Population Density (people/km²) -->
     <defs>
      <path d="M 19.671875 64.796875 
L 19.671875 37.40625 
L 32.078125 37.40625 
Q 38.96875 37.40625 42.71875 40.96875 
Q 46.484375 44.53125 46.484375 51.125 
Q 46.484375 57.671875 42.71875 61.234375 
Q 38.96875 64.796875 32.078125 64.796875 
z
M 9.8125 72.90625 
L 32.078125 72.90625 
Q 44.34375 72.90625 50.609375 67.359375 
Q 56.890625 61.8125 56.890625 51.125 
Q 56.890625 40.328125 50.609375 34.8125 
Q 44.34375 29.296875 32.078125 29.296875 
L 19.671875 29.296875 
L 19.671875 0 
L 9.8125 0 
z
" id="DejaVuSans-80"/>
      <path d="M 30.609375 48.390625 
Q 23.390625 48.390625 19.1875 42.75 
Q 14.984375 37.109375 14.984375 27.296875 
Q 14.984375 17.484375 19.15625 11.84375 
Q 23.34375 6.203125 30.609375 6.203125 
Q 37.796875 6.203125 41.984375 11.859375 
Q 46.1875 17.53125 46.1875 27.296875 
Q 46.1875 37.015625 41.984375 42.703125 
Q 37.796875 48.390625 30.609375 48.390625 
z
M 30.609375 56 
Q 42.328125 56 49.015625 48.375 
Q 55.71875 40.765625 55.71875 27.296875 
Q 55.71875 13.875 49.015625 6.21875 
Q 42.328125 -1.421875 30.609375 -1.421875 
Q 18.84375 -1.421875 12.171875 6.21875 
Q 5.515625 13.875 5.515625 27.296875 
Q 5.515625 40.765625 12.171875 48.375 
Q 18.84375 56 30.609375 56 
z
" id="DejaVuSans-111"/>
      <path d="M 9.421875 75.984375 
L 18.40625 75.984375 
L 18.40625 0 
L 9.421875 0 
z
" id="DejaVuSans-108"/>
      <path d="M 9.421875 54.6875 
L 18.40625 54.6875 
L 18.40625 0 
L 9.421875 0 
z
M 9.421875 75.984375 
L 18.40625 75.984375 
L 18.40625 64.59375 
L 9.421875 64.59375 
z
" id="DejaVuSans-105"/>
      <path d="M 54.890625 33.015625 
L 54.890625 0 
L 45.90625 0 
L 45.90625 32.71875 
Q 45.90625 40.484375 42.875 44.328125 
Q 39.84375 48.1875 33.796875 48.1875 
Q 26.515625 48.1875 22.3125 43.546875 
Q 18.109375 38.921875 18.109375 30.90625 
L 18.109375 0 
L 9.078125 0 
L 9.078125 54.6875 
L 18.109375 54.6875 
L 18.109375 46.1875 
Q 21.34375 51.125 25.703125 53.5625 
Q 30.078125 56 35.796875 56 
Q 45.21875 56 50.046875 50.171875 
Q 54.890625 44.34375 54.890625 33.015625 
z
" id="DejaVuSans-110"/>
      <path d="M 19.671875 64.796875 
L 19.671875 8.109375 
L 31.59375 8.109375 
Q 46.6875 8.109375 53.6875 14.9375 
Q 60.6875 21.78125 60.6875 36.53125 
Q 60.6875 51.171875 53.6875 57.984375 
Q 46.6875 64.796875 31.59375 64.796875 
z
M 9.8125 72.90625 
L 30.078125 72.90625 
Q 51.265625 72.90625 61.171875 64.09375 
Q 71.09375 55.28125 71.09375 36.53125 
Q 71.09375 17.671875 61.125 8.828125 
Q 51.171875 0 30.078125 0 
L 9.8125 0 
z
" id="DejaVuSans-68"/>
      <path d="M 44.28125 53.078125 
L 44.28125 44.578125 
Q 40.484375 46.53125 36.375 47.5 
Q 32.28125 48.484375 27.875 48.484375 
Q 21.1875 48.484375 17.84375 46.4375 
Q 14.5 44.390625 14.5 40.28125 
Q 14.5 37.15625 16.890625 35.375 
Q 19.28125 33.59375 26.515625 31.984375 
L 29.59375 31.296875 
Q 39.15625 29.25 43.1875 25.515625 
Q 47.21875 21.78125 47.21875 15.09375 
Q 47.21875 7.46875 41.1875 3.015625 
Q 35.15625 -1.421875 24.609375 -1.421875 
Q 20.21875 -1.421875 15.453125 -0.5625 
Q 10.6875 0.296875 5.421875 2 
L 5.421875 11.28125 
Q 10.40625 8.6875 15.234375 7.390625 
Q 20.0625 6.109375 24.8125 6.109375 
Q 31.15625 6.109375 34.5625 8.28125 
Q 37.984375 10.453125 37.984375 14.40625 
Q 37.984375 18.0625 35.515625 20.015625 
Q 33.0625 21.96875 24.703125 23.78125 
L 21.578125 24.515625 
Q 13.234375 26.265625 9.515625 29.90625 
Q 5.8125 33.546875 5.8125 39.890625 
Q 5.8125 47.609375 11.28125 51.796875 
Q 16.75 56 26.8125 56 
Q 31.78125 56 36.171875 55.265625 
Q 40.578125 54.546875 44.28125 53.078125 
z
" id="DejaVuSans-115"/>
      <path d="M 32.171875 -5.078125 
Q 28.375 -14.84375 24.75 -17.8125 
Q 21.140625 -20.796875 15.09375 -20.796875 
L 7.90625 -20.796875 
L 7.90625 -13.28125 
L 13.1875 -13.28125 
Q 16.890625 -13.28125 18.9375 -11.515625 
Q 21 -9.765625 23.484375 -3.21875 
L 25.09375 0.875 
L 2.984375 54.6875 
L 12.5 54.6875 
L 29.59375 11.921875 
L 46.6875 54.6875 
L 56.203125 54.6875 
z
" id="DejaVuSans-121"/>
      <path d="M 25.390625 72.90625 
L 33.6875 72.90625 
L 8.296875 -9.28125 
L 0 -9.28125 
z
" id="DejaVuSans-47"/>
      <path d="M 9.078125 75.984375 
L 18.109375 75.984375 
L 18.109375 31.109375 
L 44.921875 54.6875 
L 56.390625 54.6875 
L 27.390625 29.109375 
L 57.625 0 
L 45.90625 0 
L 18.109375 26.703125 
L 18.109375 0 
L 9.078125 0 
z
" id="DejaVuSans-107"/>
      <path d="M 13.09375 38.1875 
L 33.796875 38.1875 
L 33.796875 32.625 
L 4.59375 32.625 
L 4.59375 37.984375 
Q 6.25 39.5 9.328125 42.234375 
Q 26.125 57.125 26.125 61.71875 
Q 26.125 64.9375 23.578125 66.90625 
Q 21.046875 68.890625 16.890625 68.890625 
Q 14.359375 68.890625 11.375 68.03125 
Q 8.40625 67.1875 4.890625 65.484375 
L 4.890625 71.484375 
Q 8.640625 72.859375 11.890625 73.53125 
Q 15.140625 74.21875 17.921875 74.21875 
Q 25 74.21875 29.25 71 
Q 33.5 67.78125 33.5 62.5 
Q 33.5 55.71875 17.328125 41.84375 
Q 14.59375 39.5 13.09375 38.1875 
z
" id="DejaVuSans-178"/>
     </defs>
     <g transform="translate(15.470312 224.218281)rotate(-90)scale(0.1 -0.1)">
      <use xlink:href="#DejaVuSans-80"/>
      <use x="60.255859" xlink:href="#DejaVuSans-111"/>
      <use x="121.4375" xlink:href="#DejaVuSans-112"/>
      <use x="184.914062" xlink:href="#DejaVuSans-117"/>
      <use x="248.292969" xlink:href="#DejaVuSans-108"/>
      <use x="276.076172" xlink:href="#DejaVuSans-97"/>
      <use x="337.355469" xlink:href="#DejaVuSans-116"/>
      <use x="376.564453" xlink:href="#DejaVuSans-105"/>
      <use x="404.347656" xlink:href="#DejaVuSans-111"/>
      <use x="465.529297" xlink:href="#DejaVuSans-110"/>
      <use x="528.908203" xlink:href="#DejaVuSans-32"/>
      <use x="560.695312" xlink:href="#DejaVuSans-68"/>
      <use x="637.697266" xlink:href="#DejaVuSans-101"/>
      <use x="699.220703" xlink:href="#DejaVuSans-110"/>
      <use x="762.599609" xlink:href="#DejaVuSans-115"/>
      <use x="814.699219" xlink:href="#DejaVuSans-105"/>
      <use x="842.482422" xlink:href="#DejaVuSans-116"/>
      <use x="881.691406" xlink:href="#DejaVuSans-121"/>
      <use x="940.871094" xlink:href="#DejaVuSans-32"/>
      <use x="972.658203" xlink:href="#DejaVuSans-40"/>
      <use x="1011.671875" xlink:href="#DejaVuSans-112"/>
      <use x="1075.148438" xlink:href="#DejaVuSans-101"/>
      <use x="1136.671875" xlink:href="#DejaVuSans-111"/>
      <use x="1197.853516" xlink:href="#DejaVuSans-112"/>
      <use x="1261.330078" xlink:href="#DejaVuSans-108"/>
      <use x="1289.113281" xlink:href="#DejaVuSans-101"/>
      <use x="1350.636719" xlink:href="#DejaVuSans-47"/>
      <use x="1384.328125" xlink:href="#DejaVuSans-107"/>
      <use x="1442.238281" xlink:href="#DejaVuSans-109"/>
      <use x="1539.650391" xlink:href="#DejaVuSans-178"/>
      <use x="1579.738281" xlink:href="#DejaVuSans-41"/>
     </g>
    </g>
   </g>
   <g id="line2d_17">
    <defs>
     <path d="M 0 1.5 
C 0.397805 1.5 0.77937 1.341951 1.06066 1.06066 
C 1.341951 0.77937 1.5 0.397805 1.5 0 
C 1.5 -0.397805 1.341951 -0.77937 1.06066 -1.06066 
C 0.77937 -1.341951 0.397805 -1.5 0 -1.5 
C -0.397805 -1.5 -0.77937 -1.341951 -1.06066 -1.06066 
C -1.341951 -0.77937 -1.5 -0.397805 -1.5 0 
C -1.5 0.397805 -1.341951 0.77937 -1.06066 1.06066 
C -0.77937 1.341951 -0.397805 1.5 0 1.5 
z
" id="m1dc89c8aea" style="stroke:#0000ff;"/>
    </defs>
    <g clip-path="url(#p5e929ac8a5)">
     <use style="fill:#0000ff;stroke:#0000ff;" x="209.023493" xlink:href="#m1dc89c8aea" y="204.83972"/>
     <use style="fill:#0000ff;stroke:#0000ff;" x="200.249979" xlink:href="#m1dc89c8aea" y="208.83101"/>
     <use style="fill:#0000ff;stroke:#0000ff;" x="239.24375" xlink:href="#m1dc89c8aea" y="232.157777"/>
     <use style="fill:#0000ff;stroke:#0000ff;" x="223.377035" xlink:href="#m1dc89c8aea" y="173.006271"/>
     <use style="fill:#0000ff;stroke:#0000ff;" x="223.277874" xlink:href="#m1dc89c8aea" y="216.288991"/>
     <use style="fill:#0000ff;stroke:#0000ff;" x="220.108259" xlink:href="#m1dc89c8aea" y="237.124285"/>
     <use style="fill:#0000ff;stroke:#0000ff;" x="242.518026" xlink:href="#m1dc89c8aea" y="199.086261"/>
     <use style="fill:#0000ff;stroke:#0000ff;" x="219.73894" xlink:href="#m1dc89c8aea" y="200.606594"/>
     <use style="fill:#0000ff;stroke:#0000ff;" x="234.008391" xlink:href="#m1dc89c8aea" y="94.877516"/>
     <use style="fill:#0000ff;stroke:#0000ff;" x="233.802782" xlink:href="#m1dc89c8aea" y="126.790625"/>
     <use style="fill:#0000ff;stroke:#0000ff;" x="207.241084" xlink:href="#m1dc89c8aea" y="230.059694"/>
     <use style="fill:#0000ff;stroke:#0000ff;" x="188.771567" xlink:href="#m1dc89c8aea" y="235.453398"/>
     <use style="fill:#0000ff;stroke:#0000ff;" x="69.218182" xlink:href="#m1dc89c8aea" y="238.517413"/>
     <use style="fill:#0000ff;stroke:#0000ff;" x="233.120682" xlink:href="#m1dc89c8aea" y="190.58475"/>
     <use style="fill:#0000ff;stroke:#0000ff;" x="225.901079" xlink:href="#m1dc89c8aea" y="215.565629"/>
     <use style="fill:#0000ff;stroke:#0000ff;" x="194.670852" xlink:href="#m1dc89c8aea" y="240.716123"/>
     <use style="fill:#0000ff;stroke:#0000ff;" x="234.56327" xlink:href="#m1dc89c8aea" y="229.312981"/>
     <use style="fill:#0000ff;stroke:#0000ff;" x="224.529449" xlink:href="#m1dc89c8aea" y="197.209769"/>
     <use style="fill:#0000ff;stroke:#0000ff;" x="233.398693" xlink:href="#m1dc89c8aea" y="202.307429"/>
     <use style="fill:#0000ff;stroke:#0000ff;" x="242.280878" xlink:href="#m1dc89c8aea" y="173.667012"/>
     <use style="fill:#0000ff;stroke:#0000ff;" x="213.757117" xlink:href="#m1dc89c8aea" y="233.2119"/>
     <use style="fill:#0000ff;stroke:#0000ff;" x="225.784198" xlink:href="#m1dc89c8aea" y="239.684944"/>
     <use style="fill:#0000ff;stroke:#0000ff;" x="207.473476" xlink:href="#m1dc89c8aea" y="239.183407"/>
     <use style="fill:#0000ff;stroke:#0000ff;" x="195.695941" xlink:href="#m1dc89c8aea" y="235.337757"/>
     <use style="fill:#0000ff;stroke:#0000ff;" x="232.91482" xlink:href="#m1dc89c8aea" y="120.468751"/>
     <use style="fill:#0000ff;stroke:#0000ff;" x="201.15508" xlink:href="#m1dc89c8aea" y="241.289647"/>
     <use style="fill:#0000ff;stroke:#0000ff;" x="198.538373" xlink:href="#m1dc89c8aea" y="242.116364"/>
     <use style="fill:#0000ff;stroke:#0000ff;" x="245.317515" xlink:href="#m1dc89c8aea" y="222.541707"/>
     <use style="fill:#0000ff;stroke:#0000ff;" x="254.429851" xlink:href="#m1dc89c8aea" y="159.172745"/>
     <use style="fill:#0000ff;stroke:#0000ff;" x="175.446038" xlink:href="#m1dc89c8aea" y="241.980368"/>
     <use style="fill:#0000ff;stroke:#0000ff;" x="236.155328" xlink:href="#m1dc89c8aea" y="219.467244"/>
     <use style="fill:#0000ff;stroke:#0000ff;" x="247.308699" xlink:href="#m1dc89c8aea" y="216.005839"/>
     <use style="fill:#0000ff;stroke:#0000ff;" x="236.614008" xlink:href="#m1dc89c8aea" y="240.751673"/>
     <use style="fill:#0000ff;stroke:#0000ff;" x="235.996116" xlink:href="#m1dc89c8aea" y="235.786241"/>
     <use style="fill:#0000ff;stroke:#0000ff;" x="208.180897" xlink:href="#m1dc89c8aea" y="235.710273"/>
     <use style="fill:#0000ff;stroke:#0000ff;" x="208.180897" xlink:href="#m1dc89c8aea" y="236.496771"/>
     <use style="fill:#0000ff;stroke:#0000ff;" x="236.614008" xlink:href="#m1dc89c8aea" y="241.750159"/>
     <use style="fill:#0000ff;stroke:#0000ff;" x="177.897449" xlink:href="#m1dc89c8aea" y="241.492041"/>
     <use style="fill:#0000ff;stroke:#0000ff;" x="254.429851" xlink:href="#m1dc89c8aea" y="229.887629"/>
     <use style="fill:#0000ff;stroke:#0000ff;" x="214.39858" xlink:href="#m1dc89c8aea" y="146.080475"/>
     <use style="fill:#0000ff;stroke:#0000ff;" x="247.308699" xlink:href="#m1dc89c8aea" y="227.676697"/>
     <use style="fill:#0000ff;stroke:#0000ff;" x="195.549922" xlink:href="#m1dc89c8aea" y="211.301482"/>
     <use style="fill:#0000ff;stroke:#0000ff;" x="254.429851" xlink:href="#m1dc89c8aea" y="203.361125"/>
     <use style="fill:#0000ff;stroke:#0000ff;" x="217.579419" xlink:href="#m1dc89c8aea" y="239.525182"/>
     <use style="fill:#0000ff;stroke:#0000ff;" x="175.446038" xlink:href="#m1dc89c8aea" y="241.934617"/>
     <use style="fill:#0000ff;stroke:#0000ff;" x="181.910956" xlink:href="#m1dc89c8aea" y="238.527253"/>
     <use style="fill:#0000ff;stroke:#0000ff;" x="226.900899" xlink:href="#m1dc89c8aea" y="205.093028"/>
     <use style="fill:#0000ff;stroke:#0000ff;" x="167.391732" xlink:href="#m1dc89c8aea" y="241.795504"/>
     <use style="fill:#0000ff;stroke:#0000ff;" x="254.429851" xlink:href="#m1dc89c8aea" y="221.802428"/>
     <use style="fill:#0000ff;stroke:#0000ff;" x="177.897449" xlink:href="#m1dc89c8aea" y="241.874834"/>
     <use style="fill:#0000ff;stroke:#0000ff;" x="192.414404" xlink:href="#m1dc89c8aea" y="206.04707"/>
     <use style="fill:#0000ff;stroke:#0000ff;" x="202.162532" xlink:href="#m1dc89c8aea" y="204.907129"/>
     <use style="fill:#0000ff;stroke:#0000ff;" x="192.414404" xlink:href="#m1dc89c8aea" y="205.629751"/>
     <use style="fill:#0000ff;stroke:#0000ff;" x="167.644094" xlink:href="#m1dc89c8aea" y="240.564325"/>
     <use style="fill:#0000ff;stroke:#0000ff;" x="258.76897" xlink:href="#m1dc89c8aea" y="44.500607"/>
     <use style="fill:#0000ff;stroke:#0000ff;" x="313.021107" xlink:href="#m1dc89c8aea" y="235.257141"/>
     <use style="fill:#0000ff;stroke:#0000ff;" x="233.017495" xlink:href="#m1dc89c8aea" y="116.087454"/>
     <use style="fill:#0000ff;stroke:#0000ff;" x="337.304249" xlink:href="#m1dc89c8aea" y="204.213859"/>
     <use style="fill:#0000ff;stroke:#0000ff;" x="369.054054" xlink:href="#m1dc89c8aea" y="211.395028"/>
     <use style="fill:#0000ff;stroke:#0000ff;" x="269.474326" xlink:href="#m1dc89c8aea" y="122.751417"/>
     <use style="fill:#0000ff;stroke:#0000ff;" x="345.412276" xlink:href="#m1dc89c8aea" y="208.676868"/>
     <use style="fill:#0000ff;stroke:#0000ff;" x="296.172787" xlink:href="#m1dc89c8aea" y="201.550355"/>
     <use style="fill:#0000ff;stroke:#0000ff;" x="325.461754" xlink:href="#m1dc89c8aea" y="208.487874"/>
     <use style="fill:#0000ff;stroke:#0000ff;" x="295.060634" xlink:href="#m1dc89c8aea" y="181.900845"/>
     <use style="fill:#0000ff;stroke:#0000ff;" x="337.274683" xlink:href="#m1dc89c8aea" y="205.748116"/>
     <use style="fill:#0000ff;stroke:#0000ff;" x="341.404887" xlink:href="#m1dc89c8aea" y="231.952509"/>
     <use style="fill:#0000ff;stroke:#0000ff;" x="257.431657" xlink:href="#m1dc89c8aea" y="44.443636"/>
     <use style="fill:#0000ff;stroke:#0000ff;" x="259.89022" xlink:href="#m1dc89c8aea" y="203.914591"/>
     <use style="fill:#0000ff;stroke:#0000ff;" x="259.728742" xlink:href="#m1dc89c8aea" y="217.285305"/>
     <use style="fill:#0000ff;stroke:#0000ff;" x="332.87817" xlink:href="#m1dc89c8aea" y="216.932344"/>
     <use style="fill:#0000ff;stroke:#0000ff;" x="302.540943" xlink:href="#m1dc89c8aea" y="215.513952"/>
     <use style="fill:#0000ff;stroke:#0000ff;" x="248.92864" xlink:href="#m1dc89c8aea" y="195.847658"/>
     <use style="fill:#0000ff;stroke:#0000ff;" x="282.507696" xlink:href="#m1dc89c8aea" y="194.424396"/>
     <use style="fill:#0000ff;stroke:#0000ff;" x="330.412995" xlink:href="#m1dc89c8aea" y="214.688113"/>
     <use style="fill:#0000ff;stroke:#0000ff;" x="278.348774" xlink:href="#m1dc89c8aea" y="169.30313"/>
     <use style="fill:#0000ff;stroke:#0000ff;" x="242.584757" xlink:href="#m1dc89c8aea" y="162.852161"/>
     <use style="fill:#0000ff;stroke:#0000ff;" x="240.685682" xlink:href="#m1dc89c8aea" y="190.543509"/>
     <use style="fill:#0000ff;stroke:#0000ff;" x="294.513314" xlink:href="#m1dc89c8aea" y="228.415825"/>
     <use style="fill:#0000ff;stroke:#0000ff;" x="308.022105" xlink:href="#m1dc89c8aea" y="220.502487"/>
     <use style="fill:#0000ff;stroke:#0000ff;" x="253.262036" xlink:href="#m1dc89c8aea" y="198.566378"/>
     <use style="fill:#0000ff;stroke:#0000ff;" x="306.166243" xlink:href="#m1dc89c8aea" y="232.002798"/>
     <use style="fill:#0000ff;stroke:#0000ff;" x="335.88506" xlink:href="#m1dc89c8aea" y="195.560574"/>
     <use style="fill:#0000ff;stroke:#0000ff;" x="279.725615" xlink:href="#m1dc89c8aea" y="221.495314"/>
     <use style="fill:#0000ff;stroke:#0000ff;" x="271.937406" xlink:href="#m1dc89c8aea" y="168.982007"/>
     <use style="fill:#0000ff;stroke:#0000ff;" x="238.131365" xlink:href="#m1dc89c8aea" y="174.402007"/>
     <use style="fill:#0000ff;stroke:#0000ff;" x="292.07215" xlink:href="#m1dc89c8aea" y="210.931166"/>
     <use style="fill:#0000ff;stroke:#0000ff;" x="357.072824" xlink:href="#m1dc89c8aea" y="218.277311"/>
     <use style="fill:#0000ff;stroke:#0000ff;" x="324.556566" xlink:href="#m1dc89c8aea" y="194.413412"/>
     <use style="fill:#0000ff;stroke:#0000ff;" x="316.039158" xlink:href="#m1dc89c8aea" y="189.621199"/>
     <use style="fill:#0000ff;stroke:#0000ff;" x="371.667551" xlink:href="#m1dc89c8aea" y="206.40338"/>
     <use style="fill:#0000ff;stroke:#0000ff;" x="282.507191" xlink:href="#m1dc89c8aea" y="226.518242"/>
     <use style="fill:#0000ff;stroke:#0000ff;" x="308.915083" xlink:href="#m1dc89c8aea" y="205.928201"/>
     <use style="fill:#0000ff;stroke:#0000ff;" x="310.244137" xlink:href="#m1dc89c8aea" y="144.769553"/>
     <use style="fill:#0000ff;stroke:#0000ff;" x="265.535135" xlink:href="#m1dc89c8aea" y="218.984591"/>
     <use style="fill:#0000ff;stroke:#0000ff;" x="294.742226" xlink:href="#m1dc89c8aea" y="209.218943"/>
     <use style="fill:#0000ff;stroke:#0000ff;" x="347.550812" xlink:href="#m1dc89c8aea" y="160.264375"/>
     <use style="fill:#0000ff;stroke:#0000ff;" x="262.314668" xlink:href="#m1dc89c8aea" y="208.201639"/>
     <use style="fill:#0000ff;stroke:#0000ff;" x="275.629853" xlink:href="#m1dc89c8aea" y="183.399932"/>
     <use style="fill:#0000ff;stroke:#0000ff;" x="222.330721" xlink:href="#m1dc89c8aea" y="167.93543"/>
     <use style="fill:#0000ff;stroke:#0000ff;" x="305.804622" xlink:href="#m1dc89c8aea" y="219.411426"/>
     <use style="fill:#0000ff;stroke:#0000ff;" x="326.24191" xlink:href="#m1dc89c8aea" y="202.42144"/>
     <use style="fill:#0000ff;stroke:#0000ff;" x="326.501128" xlink:href="#m1dc89c8aea" y="230.235899"/>
     <use style="fill:#0000ff;stroke:#0000ff;" x="293.429931" xlink:href="#m1dc89c8aea" y="216.809509"/>
     <use style="fill:#0000ff;stroke:#0000ff;" x="246.492075" xlink:href="#m1dc89c8aea" y="190.003785"/>
     <use style="fill:#0000ff;stroke:#0000ff;" x="344.434309" xlink:href="#m1dc89c8aea" y="220.057312"/>
     <use style="fill:#0000ff;stroke:#0000ff;" x="327.491309" xlink:href="#m1dc89c8aea" y="215.917765"/>
     <use style="fill:#0000ff;stroke:#0000ff;" x="272.158017" xlink:href="#m1dc89c8aea" y="219.475306"/>
     <use style="fill:#0000ff;stroke:#0000ff;" x="184.668656" xlink:href="#m1dc89c8aea" y="180.257978"/>
     <use style="fill:#0000ff;stroke:#0000ff;" x="331.178411" xlink:href="#m1dc89c8aea" y="170.433101"/>
     <use style="fill:#0000ff;stroke:#0000ff;" x="320.887848" xlink:href="#m1dc89c8aea" y="114.363129"/>
     <use style="fill:#0000ff;stroke:#0000ff;" x="334.269226" xlink:href="#m1dc89c8aea" y="234.684595"/>
     <use style="fill:#0000ff;stroke:#0000ff;" x="346.172841" xlink:href="#m1dc89c8aea" y="208.752106"/>
     <use style="fill:#0000ff;stroke:#0000ff;" x="276.265477" xlink:href="#m1dc89c8aea" y="230.90728"/>
     <use style="fill:#0000ff;stroke:#0000ff;" x="279.876962" xlink:href="#m1dc89c8aea" y="190.3119"/>
     <use style="fill:#0000ff;stroke:#0000ff;" x="316.615829" xlink:href="#m1dc89c8aea" y="193.542968"/>
     <use style="fill:#0000ff;stroke:#0000ff;" x="264.652536" xlink:href="#m1dc89c8aea" y="185.297033"/>
     <use style="fill:#0000ff;stroke:#0000ff;" x="266.983891" xlink:href="#m1dc89c8aea" y="201.686512"/>
     <use style="fill:#0000ff;stroke:#0000ff;" x="186.805774" xlink:href="#m1dc89c8aea" y="240.488457"/>
     <use style="fill:#0000ff;stroke:#0000ff;" x="339.59906" xlink:href="#m1dc89c8aea" y="216.211549"/>
     <use style="fill:#0000ff;stroke:#0000ff;" x="292.985935" xlink:href="#m1dc89c8aea" y="219.040668"/>
     <use style="fill:#0000ff;stroke:#0000ff;" x="314.451668" xlink:href="#m1dc89c8aea" y="201.213763"/>
     <use style="fill:#0000ff;stroke:#0000ff;" x="261.11609" xlink:href="#m1dc89c8aea" y="125.129705"/>
     <use style="fill:#0000ff;stroke:#0000ff;" x="268.47131" xlink:href="#m1dc89c8aea" y="209.705634"/>
     <use style="fill:#0000ff;stroke:#0000ff;" x="249.29568" xlink:href="#m1dc89c8aea" y="205.142021"/>
     <use style="fill:#0000ff;stroke:#0000ff;" x="349.053497" xlink:href="#m1dc89c8aea" y="218.810228"/>
     <use style="fill:#0000ff;stroke:#0000ff;" x="298.009146" xlink:href="#m1dc89c8aea" y="191.405627"/>
     <use style="fill:#0000ff;stroke:#0000ff;" x="301.838171" xlink:href="#m1dc89c8aea" y="201.312"/>
     <use style="fill:#0000ff;stroke:#0000ff;" x="249.103019" xlink:href="#m1dc89c8aea" y="217.333196"/>
     <use style="fill:#0000ff;stroke:#0000ff;" x="261.11609" xlink:href="#m1dc89c8aea" y="114.880029"/>
     <use style="fill:#0000ff;stroke:#0000ff;" x="293.681134" xlink:href="#m1dc89c8aea" y="219.282971"/>
     <use style="fill:#0000ff;stroke:#0000ff;" x="336.061801" xlink:href="#m1dc89c8aea" y="222.158566"/>
     <use style="fill:#0000ff;stroke:#0000ff;" x="363.800326" xlink:href="#m1dc89c8aea" y="212.659489"/>
     <use style="fill:#0000ff;stroke:#0000ff;" x="232.980704" xlink:href="#m1dc89c8aea" y="188.70286"/>
     <use style="fill:#0000ff;stroke:#0000ff;" x="229.819007" xlink:href="#m1dc89c8aea" y="214.837175"/>
     <use style="fill:#0000ff;stroke:#0000ff;" x="310.814996" xlink:href="#m1dc89c8aea" y="220.750628"/>
     <use style="fill:#0000ff;stroke:#0000ff;" x="371.667551" xlink:href="#m1dc89c8aea" y="198.025958"/>
     <use style="fill:#0000ff;stroke:#0000ff;" x="371.667551" xlink:href="#m1dc89c8aea" y="229.363127"/>
     <use style="fill:#0000ff;stroke:#0000ff;" x="367.182743" xlink:href="#m1dc89c8aea" y="198.112477"/>
     <use style="fill:#0000ff;stroke:#0000ff;" x="272.90855" xlink:href="#m1dc89c8aea" y="219.084477"/>
     <use style="fill:#0000ff;stroke:#0000ff;" x="280.21612" xlink:href="#m1dc89c8aea" y="214.325702"/>
     <use style="fill:#0000ff;stroke:#0000ff;" x="337.110955" xlink:href="#m1dc89c8aea" y="218.94899"/>
     <use style="fill:#0000ff;stroke:#0000ff;" x="325.461754" xlink:href="#m1dc89c8aea" y="207.519359"/>
     <use style="fill:#0000ff;stroke:#0000ff;" x="280.21612" xlink:href="#m1dc89c8aea" y="234.865496"/>
     <use style="fill:#0000ff;stroke:#0000ff;" x="371.667551" xlink:href="#m1dc89c8aea" y="212.416646"/>
     <use style="fill:#0000ff;stroke:#0000ff;" x="314.451668" xlink:href="#m1dc89c8aea" y="199.088669"/>
     <use style="fill:#0000ff;stroke:#0000ff;" x="285.530541" xlink:href="#m1dc89c8aea" y="214.925549"/>
     <use style="fill:#0000ff;stroke:#0000ff;" x="323.651379" xlink:href="#m1dc89c8aea" y="210.703428"/>
     <use style="fill:#0000ff;stroke:#0000ff;" x="281.462347" xlink:href="#m1dc89c8aea" y="203.946356"/>
     <use style="fill:#0000ff;stroke:#0000ff;" x="263.242599" xlink:href="#m1dc89c8aea" y="214.296581"/>
     <use style="fill:#0000ff;stroke:#0000ff;" x="315.033337" xlink:href="#m1dc89c8aea" y="204.001287"/>
     <use style="fill:#0000ff;stroke:#0000ff;" x="235.832238" xlink:href="#m1dc89c8aea" y="204.421439"/>
     <use style="fill:#0000ff;stroke:#0000ff;" x="256.07615" xlink:href="#m1dc89c8aea" y="215.449458"/>
     <use style="fill:#0000ff;stroke:#0000ff;" x="321.997932" xlink:href="#m1dc89c8aea" y="183.375562"/>
     <use style="fill:#0000ff;stroke:#0000ff;" x="315.686635" xlink:href="#m1dc89c8aea" y="226.659684"/>
     <use style="fill:#0000ff;stroke:#0000ff;" x="248.673169" xlink:href="#m1dc89c8aea" y="207.652983"/>
     <use style="fill:#0000ff;stroke:#0000ff;" x="332.512212" xlink:href="#m1dc89c8aea" y="190.300387"/>
     <use style="fill:#0000ff;stroke:#0000ff;" x="241.024559" xlink:href="#m1dc89c8aea" y="180.649828"/>
     <use style="fill:#0000ff;stroke:#0000ff;" x="286.517889" xlink:href="#m1dc89c8aea" y="185.365459"/>
     <use style="fill:#0000ff;stroke:#0000ff;" x="329.822316" xlink:href="#m1dc89c8aea" y="201.434376"/>
     <use style="fill:#0000ff;stroke:#0000ff;" x="300.794586" xlink:href="#m1dc89c8aea" y="227.140928"/>
     <use style="fill:#0000ff;stroke:#0000ff;" x="326.321455" xlink:href="#m1dc89c8aea" y="174.217769"/>
     <use style="fill:#0000ff;stroke:#0000ff;" x="264.063636" xlink:href="#m1dc89c8aea" y="137.586719"/>
     <use style="fill:#0000ff;stroke:#0000ff;" x="301.838171" xlink:href="#m1dc89c8aea" y="177.571337"/>
     <use style="fill:#0000ff;stroke:#0000ff;" x="335.305103" xlink:href="#m1dc89c8aea" y="227.859577"/>
     <use style="fill:#0000ff;stroke:#0000ff;" x="304.878965" xlink:href="#m1dc89c8aea" y="219.255379"/>
     <use style="fill:#0000ff;stroke:#0000ff;" x="308.285929" xlink:href="#m1dc89c8aea" y="224.181546"/>
     <use style="fill:#0000ff;stroke:#0000ff;" x="255.984483" xlink:href="#m1dc89c8aea" y="207.546207"/>
     <use style="fill:#0000ff;stroke:#0000ff;" x="323.055501" xlink:href="#m1dc89c8aea" y="232.277582"/>
     <use style="fill:#0000ff;stroke:#0000ff;" x="322.76666" xlink:href="#m1dc89c8aea" y="235.177975"/>
     <use style="fill:#0000ff;stroke:#0000ff;" x="234.710987" xlink:href="#m1dc89c8aea" y="215.192016"/>
     <use style="fill:#0000ff;stroke:#0000ff;" x="322.459624" xlink:href="#m1dc89c8aea" y="224.258612"/>
     <use style="fill:#0000ff;stroke:#0000ff;" x="263.586706" xlink:href="#m1dc89c8aea" y="223.836108"/>
     <use style="fill:#0000ff;stroke:#0000ff;" x="298.891659" xlink:href="#m1dc89c8aea" y="233.056646"/>
     <use style="fill:#0000ff;stroke:#0000ff;" x="323.539936" xlink:href="#m1dc89c8aea" y="228.871061"/>
     <use style="fill:#0000ff;stroke:#0000ff;" x="341.268426" xlink:href="#m1dc89c8aea" y="223.146444"/>
     <use style="fill:#0000ff;stroke:#0000ff;" x="314.438759" xlink:href="#m1dc89c8aea" y="218.698768"/>
     <use style="fill:#0000ff;stroke:#0000ff;" x="269.836277" xlink:href="#m1dc89c8aea" y="217.286792"/>
     <use style="fill:#0000ff;stroke:#0000ff;" x="297.625175" xlink:href="#m1dc89c8aea" y="223.528839"/>
     <use style="fill:#0000ff;stroke:#0000ff;" x="344.546506" xlink:href="#m1dc89c8aea" y="226.890279"/>
     <use style="fill:#0000ff;stroke:#0000ff;" x="229.6125" xlink:href="#m1dc89c8aea" y="190.764318"/>
     <use style="fill:#0000ff;stroke:#0000ff;" x="368.349259" xlink:href="#m1dc89c8aea" y="228.576534"/>
     <use style="fill:#0000ff;stroke:#0000ff;" x="371.667551" xlink:href="#m1dc89c8aea" y="198.548435"/>
     <use style="fill:#0000ff;stroke:#0000ff;" x="294.147208" xlink:href="#m1dc89c8aea" y="203.855658"/>
     <use style="fill:#0000ff;stroke:#0000ff;" x="283.272087" xlink:href="#m1dc89c8aea" y="225.665904"/>
     <use style="fill:#0000ff;stroke:#0000ff;" x="352.885762" xlink:href="#m1dc89c8aea" y="228.201071"/>
     <use style="fill:#0000ff;stroke:#0000ff;" x="251.454688" xlink:href="#m1dc89c8aea" y="166.48855"/>
     <use style="fill:#0000ff;stroke:#0000ff;" x="349.716758" xlink:href="#m1dc89c8aea" y="193.271241"/>
     <use style="fill:#0000ff;stroke:#0000ff;" x="308.474699" xlink:href="#m1dc89c8aea" y="229.015993"/>
     <use style="fill:#0000ff;stroke:#0000ff;" x="332.512212" xlink:href="#m1dc89c8aea" y="197.224165"/>
     <use style="fill:#0000ff;stroke:#0000ff;" x="297.426974" xlink:href="#m1dc89c8aea" y="199.210031"/>
     <use style="fill:#0000ff;stroke:#0000ff;" x="284.469751" xlink:href="#m1dc89c8aea" y="198.321227"/>
     <use style="fill:#0000ff;stroke:#0000ff;" x="320.887848" xlink:href="#m1dc89c8aea" y="139.044451"/>
     <use style="fill:#0000ff;stroke:#0000ff;" x="256.644735" xlink:href="#m1dc89c8aea" y="206.977706"/>
     <use style="fill:#0000ff;stroke:#0000ff;" x="235.20452" xlink:href="#m1dc89c8aea" y="217.849273"/>
     <use style="fill:#0000ff;stroke:#0000ff;" x="332.512212" xlink:href="#m1dc89c8aea" y="206.617369"/>
     <use style="fill:#0000ff;stroke:#0000ff;" x="314.094596" xlink:href="#m1dc89c8aea" y="215.408587"/>
     <use style="fill:#0000ff;stroke:#0000ff;" x="308.179035" xlink:href="#m1dc89c8aea" y="202.884879"/>
     <use style="fill:#0000ff;stroke:#0000ff;" x="322.391393" xlink:href="#m1dc89c8aea" y="224.536305"/>
     <use style="fill:#0000ff;stroke:#0000ff;" x="263.372237" xlink:href="#m1dc89c8aea" y="207.553464"/>
     <use style="fill:#0000ff;stroke:#0000ff;" x="280.188716" xlink:href="#m1dc89c8aea" y="221.138389"/>
     <use style="fill:#0000ff;stroke:#0000ff;" x="343.715618" xlink:href="#m1dc89c8aea" y="197.605341"/>
     <use style="fill:#0000ff;stroke:#0000ff;" x="263.476856" xlink:href="#m1dc89c8aea" y="200.947801"/>
     <use style="fill:#0000ff;stroke:#0000ff;" x="266.444872" xlink:href="#m1dc89c8aea" y="214.191209"/>
     <use style="fill:#0000ff;stroke:#0000ff;" x="367.182743" xlink:href="#m1dc89c8aea" y="232.755069"/>
     <use style="fill:#0000ff;stroke:#0000ff;" x="314.451668" xlink:href="#m1dc89c8aea" y="221.818454"/>
     <use style="fill:#0000ff;stroke:#0000ff;" x="291.290859" xlink:href="#m1dc89c8aea" y="212.609059"/>
     <use style="fill:#0000ff;stroke:#0000ff;" x="326.733111" xlink:href="#m1dc89c8aea" y="224.183909"/>
     <use style="fill:#0000ff;stroke:#0000ff;" x="280.81416" xlink:href="#m1dc89c8aea" y="216.743176"/>
     <use style="fill:#0000ff;stroke:#0000ff;" x="326.728562" xlink:href="#m1dc89c8aea" y="226.551826"/>
     <use style="fill:#0000ff;stroke:#0000ff;" x="281.983578" xlink:href="#m1dc89c8aea" y="171.93013"/>
     <use style="fill:#0000ff;stroke:#0000ff;" x="278.348774" xlink:href="#m1dc89c8aea" y="134.712667"/>
     <use style="fill:#0000ff;stroke:#0000ff;" x="259.098843" xlink:href="#m1dc89c8aea" y="206.974513"/>
     <use style="fill:#0000ff;stroke:#0000ff;" x="235.982853" xlink:href="#m1dc89c8aea" y="192.191928"/>
     <use style="fill:#0000ff;stroke:#0000ff;" x="337.304249" xlink:href="#m1dc89c8aea" y="205.86036"/>
     <use style="fill:#0000ff;stroke:#0000ff;" x="285.789839" xlink:href="#m1dc89c8aea" y="174.361944"/>
     <use style="fill:#0000ff;stroke:#0000ff;" x="326.242632" xlink:href="#m1dc89c8aea" y="235.607979"/>
     <use style="fill:#0000ff;stroke:#0000ff;" x="317.942195" xlink:href="#m1dc89c8aea" y="171.809118"/>
     <use style="fill:#0000ff;stroke:#0000ff;" x="345.946746" xlink:href="#m1dc89c8aea" y="190.609397"/>
     <use style="fill:#0000ff;stroke:#0000ff;" x="282.507191" xlink:href="#m1dc89c8aea" y="229.829354"/>
     <use style="fill:#0000ff;stroke:#0000ff;" x="324.733965" xlink:href="#m1dc89c8aea" y="199.980886"/>
     <use style="fill:#0000ff;stroke:#0000ff;" x="288.086492" xlink:href="#m1dc89c8aea" y="227.055524"/>
     <use style="fill:#0000ff;stroke:#0000ff;" x="242.798545" xlink:href="#m1dc89c8aea" y="212.951562"/>
     <use style="fill:#0000ff;stroke:#0000ff;" x="291.724175" xlink:href="#m1dc89c8aea" y="165.469358"/>
     <use style="fill:#0000ff;stroke:#0000ff;" x="322.273128" xlink:href="#m1dc89c8aea" y="227.900721"/>
     <use style="fill:#0000ff;stroke:#0000ff;" x="252.174202" xlink:href="#m1dc89c8aea" y="161.586736"/>
     <use style="fill:#0000ff;stroke:#0000ff;" x="325.461754" xlink:href="#m1dc89c8aea" y="208.468681"/>
     <use style="fill:#0000ff;stroke:#0000ff;" x="326.595741" xlink:href="#m1dc89c8aea" y="214.540779"/>
     <use style="fill:#0000ff;stroke:#0000ff;" x="146.260213" xlink:href="#m1dc89c8aea" y="183.209348"/>
     <use style="fill:#0000ff;stroke:#0000ff;" x="373.581818" xlink:href="#m1dc89c8aea" y="209.204985"/>
     <use style="fill:#0000ff;stroke:#0000ff;" x="249.944526" xlink:href="#m1dc89c8aea" y="205.783449"/>
     <use style="fill:#0000ff;stroke:#0000ff;" x="324.929558" xlink:href="#m1dc89c8aea" y="176.653024"/>
     <use style="fill:#0000ff;stroke:#0000ff;" x="331.178411" xlink:href="#m1dc89c8aea" y="183.576931"/>
     <use style="fill:#0000ff;stroke:#0000ff;" x="262.829778" xlink:href="#m1dc89c8aea" y="214.994066"/>
     <use style="fill:#0000ff;stroke:#0000ff;" x="279.18455" xlink:href="#m1dc89c8aea" y="206.288804"/>
     <use style="fill:#0000ff;stroke:#0000ff;" x="268.805638" xlink:href="#m1dc89c8aea" y="201.715503"/>
     <use style="fill:#0000ff;stroke:#0000ff;" x="269.836277" xlink:href="#m1dc89c8aea" y="219.562328"/>
     <use style="fill:#0000ff;stroke:#0000ff;" x="286.636474" xlink:href="#m1dc89c8aea" y="231.262088"/>
     <use style="fill:#0000ff;stroke:#0000ff;" x="240.685682" xlink:href="#m1dc89c8aea" y="199.985779"/>
     <use style="fill:#0000ff;stroke:#0000ff;" x="320.457716" xlink:href="#m1dc89c8aea" y="223.354944"/>
     <use style="fill:#0000ff;stroke:#0000ff;" x="309.199385" xlink:href="#m1dc89c8aea" y="227.976946"/>
     <use style="fill:#0000ff;stroke:#0000ff;" x="310.136836" xlink:href="#m1dc89c8aea" y="231.927773"/>
     <use style="fill:#0000ff;stroke:#0000ff;" x="330.428328" xlink:href="#m1dc89c8aea" y="231.750249"/>
     <use style="fill:#0000ff;stroke:#0000ff;" x="313.330031" xlink:href="#m1dc89c8aea" y="228.378923"/>
     <use style="fill:#0000ff;stroke:#0000ff;" x="314.451668" xlink:href="#m1dc89c8aea" y="205.13741"/>
     <use style="fill:#0000ff;stroke:#0000ff;" x="367.182743" xlink:href="#m1dc89c8aea" y="230.09273"/>
     <use style="fill:#0000ff;stroke:#0000ff;" x="237.505561" xlink:href="#m1dc89c8aea" y="203.948464"/>
     <use style="fill:#0000ff;stroke:#0000ff;" x="295.306668" xlink:href="#m1dc89c8aea" y="212.074728"/>
     <use style="fill:#0000ff;stroke:#0000ff;" x="340.920452" xlink:href="#m1dc89c8aea" y="219.826642"/>
     <use style="fill:#0000ff;stroke:#0000ff;" x="251.236351" xlink:href="#m1dc89c8aea" y="223.142127"/>
     <use style="fill:#0000ff;stroke:#0000ff;" x="316.063026" xlink:href="#m1dc89c8aea" y="203.071355"/>
     <use style="fill:#0000ff;stroke:#0000ff;" x="245.725622" xlink:href="#m1dc89c8aea" y="171.829989"/>
     <use style="fill:#0000ff;stroke:#0000ff;" x="258.363212" xlink:href="#m1dc89c8aea" y="215.457254"/>
     <use style="fill:#0000ff;stroke:#0000ff;" x="316.457092" xlink:href="#m1dc89c8aea" y="217.259797"/>
     <use style="fill:#0000ff;stroke:#0000ff;" x="305.285306" xlink:href="#m1dc89c8aea" y="197.485339"/>
     <use style="fill:#0000ff;stroke:#0000ff;" x="265.100736" xlink:href="#m1dc89c8aea" y="141.577798"/>
     <use style="fill:#0000ff;stroke:#0000ff;" x="331.986839" xlink:href="#m1dc89c8aea" y="215.556514"/>
     <use style="fill:#0000ff;stroke:#0000ff;" x="251.952681" xlink:href="#m1dc89c8aea" y="212.849318"/>
     <use style="fill:#0000ff;stroke:#0000ff;" x="278.20127" xlink:href="#m1dc89c8aea" y="219.665752"/>
     <use style="fill:#0000ff;stroke:#0000ff;" x="316.457092" xlink:href="#m1dc89c8aea" y="210.272297"/>
     <use style="fill:#0000ff;stroke:#0000ff;" x="295.060634" xlink:href="#m1dc89c8aea" y="170.213803"/>
     <use style="fill:#0000ff;stroke:#0000ff;" x="315.46375" xlink:href="#m1dc89c8aea" y="231.552324"/>
     <use style="fill:#0000ff;stroke:#0000ff;" x="258.207707" xlink:href="#m1dc89c8aea" y="166.960256"/>
     <use style="fill:#0000ff;stroke:#0000ff;" x="319.921446" xlink:href="#m1dc89c8aea" y="225.103802"/>
     <use style="fill:#0000ff;stroke:#0000ff;" x="319.004899" xlink:href="#m1dc89c8aea" y="230.667052"/>
     <use style="fill:#0000ff;stroke:#0000ff;" x="302.809656" xlink:href="#m1dc89c8aea" y="235.787905"/>
     <use style="fill:#0000ff;stroke:#0000ff;" x="306.511226" xlink:href="#m1dc89c8aea" y="216.775023"/>
     <use style="fill:#0000ff;stroke:#0000ff;" x="274.691975" xlink:href="#m1dc89c8aea" y="173.208139"/>
     <use style="fill:#0000ff;stroke:#0000ff;" x="324.752397" xlink:href="#m1dc89c8aea" y="196.89253"/>
     <use style="fill:#0000ff;stroke:#0000ff;" x="246.54666" xlink:href="#m1dc89c8aea" y="199.123018"/>
     <use style="fill:#0000ff;stroke:#0000ff;" x="164.995962" xlink:href="#m1dc89c8aea" y="218.709055"/>
     <use style="fill:#0000ff;stroke:#0000ff;" x="274.179906" xlink:href="#m1dc89c8aea" y="223.620583"/>
     <use style="fill:#0000ff;stroke:#0000ff;" x="262.22142" xlink:href="#m1dc89c8aea" y="170.444606"/>
     <use style="fill:#0000ff;stroke:#0000ff;" x="283.3998" xlink:href="#m1dc89c8aea" y="213.620887"/>
     <use style="fill:#0000ff;stroke:#0000ff;" x="329.910366" xlink:href="#m1dc89c8aea" y="227.220387"/>
     <use style="fill:#0000ff;stroke:#0000ff;" x="317.325668" xlink:href="#m1dc89c8aea" y="214.869897"/>
     <use style="fill:#0000ff;stroke:#0000ff;" x="307.030492" xlink:href="#m1dc89c8aea" y="213.435911"/>
     <use style="fill:#0000ff;stroke:#0000ff;" x="269.553896" xlink:href="#m1dc89c8aea" y="209.886082"/>
     <use style="fill:#0000ff;stroke:#0000ff;" x="270.488857" xlink:href="#m1dc89c8aea" y="225.956962"/>
     <use style="fill:#0000ff;stroke:#0000ff;" x="278.330579" xlink:href="#m1dc89c8aea" y="213.609157"/>
     <use style="fill:#0000ff;stroke:#0000ff;" x="237.453843" xlink:href="#m1dc89c8aea" y="208.372782"/>
     <use style="fill:#0000ff;stroke:#0000ff;" x="344.433606" xlink:href="#m1dc89c8aea" y="114.707586"/>
     <use style="fill:#0000ff;stroke:#0000ff;" x="302.668406" xlink:href="#m1dc89c8aea" y="211.813624"/>
     <use style="fill:#0000ff;stroke:#0000ff;" x="343.749733" xlink:href="#m1dc89c8aea" y="212.391681"/>
     <use style="fill:#0000ff;stroke:#0000ff;" x="220.157477" xlink:href="#m1dc89c8aea" y="221.004622"/>
     <use style="fill:#0000ff;stroke:#0000ff;" x="286.880078" xlink:href="#m1dc89c8aea" y="212.955052"/>
     <use style="fill:#0000ff;stroke:#0000ff;" x="279.18455" xlink:href="#m1dc89c8aea" y="207.188709"/>
     <use style="fill:#0000ff;stroke:#0000ff;" x="259.186474" xlink:href="#m1dc89c8aea" y="204.131439"/>
     <use style="fill:#0000ff;stroke:#0000ff;" x="341.146173" xlink:href="#m1dc89c8aea" y="217.310911"/>
     <use style="fill:#0000ff;stroke:#0000ff;" x="314.451668" xlink:href="#m1dc89c8aea" y="204.609351"/>
     <use style="fill:#0000ff;stroke:#0000ff;" x="292.203965" xlink:href="#m1dc89c8aea" y="145.78108"/>
     <use style="fill:#0000ff;stroke:#0000ff;" x="323.339464" xlink:href="#m1dc89c8aea" y="206.184272"/>
     <use style="fill:#0000ff;stroke:#0000ff;" x="301.838171" xlink:href="#m1dc89c8aea" y="166.252559"/>
     <use style="fill:#0000ff;stroke:#0000ff;" x="332.837443" xlink:href="#m1dc89c8aea" y="220.284765"/>
     <use style="fill:#0000ff;stroke:#0000ff;" x="240.658515" xlink:href="#m1dc89c8aea" y="210.487745"/>
     <use style="fill:#0000ff;stroke:#0000ff;" x="315.610434" xlink:href="#m1dc89c8aea" y="208.78371"/>
     <use style="fill:#0000ff;stroke:#0000ff;" x="254.402234" xlink:href="#m1dc89c8aea" y="192.392715"/>
     <use style="fill:#0000ff;stroke:#0000ff;" x="294.525525" xlink:href="#m1dc89c8aea" y="227.867052"/>
     <use style="fill:#0000ff;stroke:#0000ff;" x="308.553773" xlink:href="#m1dc89c8aea" y="203.996512"/>
     <use style="fill:#0000ff;stroke:#0000ff;" x="300.624963" xlink:href="#m1dc89c8aea" y="111.460066"/>
     <use style="fill:#0000ff;stroke:#0000ff;" x="242.584757" xlink:href="#m1dc89c8aea" y="79.13634"/>
     <use style="fill:#0000ff;stroke:#0000ff;" x="242.227979" xlink:href="#m1dc89c8aea" y="160.300395"/>
     <use style="fill:#0000ff;stroke:#0000ff;" x="233.336675" xlink:href="#m1dc89c8aea" y="208.198527"/>
     <use style="fill:#0000ff;stroke:#0000ff;" x="246.276013" xlink:href="#m1dc89c8aea" y="216.200649"/>
     <use style="fill:#0000ff;stroke:#0000ff;" x="286.684235" xlink:href="#m1dc89c8aea" y="216.69496"/>
     <use style="fill:#0000ff;stroke:#0000ff;" x="350.351572" xlink:href="#m1dc89c8aea" y="225.892722"/>
     <use style="fill:#0000ff;stroke:#0000ff;" x="272.693183" xlink:href="#m1dc89c8aea" y="220.724183"/>
     <use style="fill:#0000ff;stroke:#0000ff;" x="286.517889" xlink:href="#m1dc89c8aea" y="206.20458"/>
     <use style="fill:#0000ff;stroke:#0000ff;" x="346.431618" xlink:href="#m1dc89c8aea" y="199.553939"/>
     <use style="fill:#0000ff;stroke:#0000ff;" x="323.351166" xlink:href="#m1dc89c8aea" y="228.353755"/>
     <use style="fill:#0000ff;stroke:#0000ff;" x="248.839255" xlink:href="#m1dc89c8aea" y="219.006551"/>
     <use style="fill:#0000ff;stroke:#0000ff;" x="255.028043" xlink:href="#m1dc89c8aea" y="200.84062"/>
     <use style="fill:#0000ff;stroke:#0000ff;" x="348.271123" xlink:href="#m1dc89c8aea" y="222.766721"/>
     <use style="fill:#0000ff;stroke:#0000ff;" x="272.728877" xlink:href="#m1dc89c8aea" y="201.040143"/>
     <use style="fill:#0000ff;stroke:#0000ff;" x="344.433606" xlink:href="#m1dc89c8aea" y="170.692222"/>
     <use style="fill:#0000ff;stroke:#0000ff;" x="307.380741" xlink:href="#m1dc89c8aea" y="218.646652"/>
     <use style="fill:#0000ff;stroke:#0000ff;" x="324.556566" xlink:href="#m1dc89c8aea" y="197.623716"/>
     <use style="fill:#0000ff;stroke:#0000ff;" x="248.616979" xlink:href="#m1dc89c8aea" y="99.181946"/>
     <use style="fill:#0000ff;stroke:#0000ff;" x="352.594646" xlink:href="#m1dc89c8aea" y="227.467021"/>
     <use style="fill:#0000ff;stroke:#0000ff;" x="324.929558" xlink:href="#m1dc89c8aea" y="124.804293"/>
     <use style="fill:#0000ff;stroke:#0000ff;" x="308.67939" xlink:href="#m1dc89c8aea" y="213.822657"/>
     <use style="fill:#0000ff;stroke:#0000ff;" x="257.068229" xlink:href="#m1dc89c8aea" y="200.670854"/>
     <use style="fill:#0000ff;stroke:#0000ff;" x="221.3249" xlink:href="#m1dc89c8aea" y="221.987103"/>
     <use style="fill:#0000ff;stroke:#0000ff;" x="324.786275" xlink:href="#m1dc89c8aea" y="222.825637"/>
     <use style="fill:#0000ff;stroke:#0000ff;" x="317.544772" xlink:href="#m1dc89c8aea" y="226.109566"/>
     <use style="fill:#0000ff;stroke:#0000ff;" x="318.138691" xlink:href="#m1dc89c8aea" y="217.823933"/>
     <use style="fill:#0000ff;stroke:#0000ff;" x="326.321455" xlink:href="#m1dc89c8aea" y="177.710266"/>
     <use style="fill:#0000ff;stroke:#0000ff;" x="276.179052" xlink:href="#m1dc89c8aea" y="208.586993"/>
     <use style="fill:#0000ff;stroke:#0000ff;" x="268.723762" xlink:href="#m1dc89c8aea" y="175.830027"/>
     <use style="fill:#0000ff;stroke:#0000ff;" x="324.874974" xlink:href="#m1dc89c8aea" y="167.459713"/>
     <use style="fill:#0000ff;stroke:#0000ff;" x="315.033337" xlink:href="#m1dc89c8aea" y="194.092668"/>
     <use style="fill:#0000ff;stroke:#0000ff;" x="250.092737" xlink:href="#m1dc89c8aea" y="225.126304"/>
     <use style="fill:#0000ff;stroke:#0000ff;" x="326.223659" xlink:href="#m1dc89c8aea" y="225.055112"/>
     <use style="fill:#0000ff;stroke:#0000ff;" x="326.667155" xlink:href="#m1dc89c8aea" y="228.332975"/>
     <use style="fill:#0000ff;stroke:#0000ff;" x="240.094011" xlink:href="#m1dc89c8aea" y="215.961198"/>
     <use style="fill:#0000ff;stroke:#0000ff;" x="302.213437" xlink:href="#m1dc89c8aea" y="187.705874"/>
     <use style="fill:#0000ff;stroke:#0000ff;" x="252.873877" xlink:href="#m1dc89c8aea" y="200.285218"/>
     <use style="fill:#0000ff;stroke:#0000ff;" x="332.211999" xlink:href="#m1dc89c8aea" y="224.801639"/>
     <use style="fill:#0000ff;stroke:#0000ff;" x="364.705474" xlink:href="#m1dc89c8aea" y="192.172706"/>
     <use style="fill:#0000ff;stroke:#0000ff;" x="364.705474" xlink:href="#m1dc89c8aea" y="233.792548"/>
    </g>
   </g>
   <g id="patch_3">
    <path d="M 54 252 
L 54 34.56 
" style="fill:none;stroke:#000000;stroke-linecap:square;stroke-linejoin:miter;stroke-width:0.8;"/>
   </g>
   <g id="patch_4">
    <path d="M 388.8 252 
L 388.8 34.56 
" style="fill:none;stroke:#000000;stroke-linecap:square;stroke-linejoin:miter;stroke-width:0.8;"/>
   </g>
   <g id="patch_5">
    <path d="M 54 252 
L 388.8 252 
" style="fill:none;stroke:#000000;stroke-linecap:square;stroke-linejoin:miter;stroke-width:0.8;"/>
   </g>
   <g id="patch_6">
    <path d="M 54 34.56 
L 388.8 34.56 
" style="fill:none;stroke:#000000;stroke-linecap:square;stroke-linejoin:miter;stroke-width:0.8;"/>
   </g>
   <g id="text_19">
    <!-- Temperature vs. Population Density -->
    <defs>
     <path d="M 10.6875 12.40625 
L 21 12.40625 
L 21 0 
L 10.6875 0 
z
" id="DejaVuSans-46"/>
    </defs>
    <g transform="translate(113.410313 28.56)scale(0.12 -0.12)">
     <use xlink:href="#DejaVuSans-84"/>
     <use x="60.818359" xlink:href="#DejaVuSans-101"/>
     <use x="122.341797" xlink:href="#DejaVuSans-109"/>
     <use x="219.753906" xlink:href="#DejaVuSans-112"/>
     <use x="283.230469" xlink:href="#DejaVuSans-101"/>
     <use x="344.753906" xlink:href="#DejaVuSans-114"/>
     <use x="385.867188" xlink:href="#DejaVuSans-97"/>
     <use x="447.146484" xlink:href="#DejaVuSans-116"/>
     <use x="486.355469" xlink:href="#DejaVuSans-117"/>
     <use x="549.734375" xlink:href="#DejaVuSans-114"/>
     <use x="590.816406" xlink:href="#DejaVuSans-101"/>
     <use x="652.339844" xlink:href="#DejaVuSans-32"/>
     <use x="684.126953" xlink:href="#DejaVuSans-118"/>
     <use x="743.306641" xlink:href="#DejaVuSans-115"/>
     <use x="795.40625" xlink:href="#DejaVuSans-46"/>
     <use x="827.193359" xlink:href="#DejaVuSans-32"/>
     <use x="858.980469" xlink:href="#DejaVuSans-80"/>
     <use x="919.236328" xlink:href="#DejaVuSans-111"/>
     <use x="980.417969" xlink:href="#DejaVuSans-112"/>
     <use x="1043.894531" xlink:href="#DejaVuSans-117"/>
     <use x="1107.273438" xlink:href="#DejaVuSans-108"/>
     <use x="1135.056641" xlink:href="#DejaVuSans-97"/>
     <use x="1196.335938" xlink:href="#DejaVuSans-116"/>
     <use x="1235.544922" xlink:href="#DejaVuSans-105"/>
     <use x="1263.328125" xlink:href="#DejaVuSans-111"/>
     <use x="1324.509766" xlink:href="#DejaVuSans-110"/>
     <use x="1387.888672" xlink:href="#DejaVuSans-32"/>
     <use x="1419.675781" xlink:href="#DejaVuSans-68"/>
     <use x="1496.677734" xlink:href="#DejaVuSans-101"/>
     <use x="1558.201172" xlink:href="#DejaVuSans-110"/>
     <use x="1621.580078" xlink:href="#DejaVuSans-115"/>
     <use x="1673.679688" xlink:href="#DejaVuSans-105"/>
     <use x="1701.462891" xlink:href="#DejaVuSans-116"/>
     <use x="1740.671875" xlink:href="#DejaVuSans-121"/>
    </g>
   </g>
  </g>
 </g>
 <defs>
  <clipPath id="p5e929ac8a5">
   <rect height="217.44" width="334.8" x="54" y="34.56"/>
  </clipPath>
 </defs>
</svg>
